<?xml version="1.0" standalone="no"?>
<!DOCTYPE svg PUBLIC "-//W3C//DTD SVG 20010904//EN"
 "http://www.w3.org/TR/2001/REC-SVG-20010904/DTD/svg10.dtd">
<svg version="1.0" xmlns="http://www.w3.org/2000/svg"
 width="1024.000000pt" height="1024.000000pt" viewBox="0 0 1024.000000 1024.000000"
 preserveAspectRatio="xMidYMid meet">
<metadata>
Created by potrace 1.16, written by Peter Selinger 2001-2019
</metadata>
<g transform="translate(0.000000,1024.000000) scale(0.100000,-0.100000)"
fill="#000000" stroke="none">
<path d="M4980 9940 c-159 -33 -218 -54 -310 -110 -58 -35 -80 -42 -147 -49
-43 -5 -94 -15 -113 -24 -129 -56 -109 -55 -250 -13 -66 20 -109 26 -197 27
-106 1 -115 0 -178 -30 -37 -17 -114 -44 -171 -61 -90 -26 -298 -108 -488
-193 -66 -29 -129 -74 -277 -197 -68 -57 -146 -113 -174 -126 -28 -13 -99 -31
-160 -40 -61 -9 -121 -22 -135 -29 -69 -36 -165 -171 -200 -280 -7 -22 -30
-82 -52 -132 -29 -70 -41 -116 -49 -185 -6 -51 -23 -132 -40 -179 -40 -120
-39 -130 24 -192 49 -49 52 -55 52 -103 0 -42 -8 -63 -50 -135 -56 -95 -60
-128 -30 -218 14 -43 31 -66 83 -115 37 -34 109 -104 162 -156 52 -52 123
-113 158 -135 73 -47 71 -44 102 -251 23 -164 90 -435 126 -513 13 -30 40 -76
59 -103 59 -81 231 -283 256 -300 37 -25 148 -138 175 -177 13 -20 33 -65 44
-101 18 -56 20 -79 15 -165 -4 -55 -13 -136 -21 -180 -27 -154 -17 -267 31
-370 17 -38 67 -246 60 -253 -6 -7 -6 -8 -52 65 -39 59 -45 77 -74 208 -11 47
-18 60 -32 59 -25 -2 -30 31 -25 174 4 122 6 131 43 212 44 95 47 134 22 220
-11 39 -27 64 -53 87 -35 31 -39 44 -32 98 2 12 -4 21 -14 23 -39 8 -41 -60
-8 -228 6 -31 11 -160 11 -294 -1 -206 2 -252 19 -324 25 -104 83 -218 153
-297 46 -54 56 -73 85 -170 101 -339 175 -545 286 -790 68 -149 110 -248 176
-413 40 -103 41 -106 38 -215 l-3 -111 -41 -12 c-22 -6 -59 -21 -82 -33 -60
-31 -224 -182 -276 -255 -52 -73 -119 -136 -144 -136 -10 0 -52 16 -92 36 -41
21 -93 39 -115 42 -60 6 -147 -15 -189 -46 -79 -60 -182 -226 -212 -341 -9
-35 -16 -111 -17 -174 -2 -98 1 -117 20 -153 33 -62 180 -189 239 -208 12 -4
24 -16 27 -28 16 -58 -63 -113 -238 -167 -191 -58 -310 -92 -355 -101 -25 -4
-99 -31 -165 -60 -135 -58 -367 -157 -464 -197 -35 -14 -71 -34 -80 -43 -9 -9
-36 -22 -61 -29 -25 -7 -71 -26 -103 -43 -32 -16 -66 -28 -75 -27 -38 3 -53
-3 -84 -34 -18 -18 -60 -43 -93 -56 -99 -37 -193 -107 -252 -186 -58 -78 -53
-68 -158 -292 -99 -212 -150 -374 -160 -510 l-7 -103 4796 0 4796 0 0 913 c-1
1016 -1 1021 -60 1082 -43 45 -91 59 -280 85 -85 12 -240 43 -345 70 -104 27
-230 56 -278 65 -48 9 -125 29 -170 45 -447 156 -463 161 -727 215 -136 27
-355 90 -383 110 -9 6 -31 40 -48 74 -26 52 -46 74 -127 138 -130 104 -194
172 -238 257 -21 39 -51 94 -69 121 -17 28 -60 106 -95 174 -78 151 -104 181
-155 181 -34 0 -46 -9 -132 -95 -64 -64 -101 -95 -117 -95 -23 0 -62 29 -172
129 -72 65 -199 156 -246 175 -18 8 -59 17 -91 21 -36 5 -61 13 -64 22 -3 7 9
53 26 101 42 115 119 366 127 411 3 20 14 81 24 136 35 180 88 597 99 770 6
94 11 308 11 476 0 328 -6 377 -51 425 -29 31 -27 70 7 165 32 91 65 149 170
306 69 104 89 143 125 250 l44 128 0 195 c0 151 -4 214 -18 282 -22 103 -20
109 63 185 37 34 67 74 88 116 30 60 32 72 32 170 0 77 4 115 17 143 13 29 17
65 17 139 -1 91 -4 108 -37 192 -23 56 -43 130 -52 191 -24 161 -38 184 -164
277 -130 95 -222 197 -269 297 -22 46 -45 100 -51 120 -17 52 -63 88 -111 88
-21 0 -70 -11 -108 -25 -152 -55 -201 -30 -377 191 -85 107 -102 114 -283 114
l-138 0 -31 29 c-32 29 -40 50 -62 171 -7 36 -21 79 -32 97 -82 132 -259 171
-529 113z m-463 -1970 c92 -12 246 -50 438 -110 170 -53 234 -68 343 -79 49
-5 138 -21 198 -34 60 -14 150 -33 199 -42 144 -26 286 -64 342 -91 66 -32
122 -95 150 -170 12 -33 34 -117 48 -189 28 -143 73 -302 116 -410 35 -89 104
-354 119 -460 16 -116 45 -233 90 -370 54 -165 69 -229 86 -364 18 -147 18
-271 -1 -391 -8 -52 -22 -142 -31 -200 -8 -58 -24 -139 -34 -180 -11 -41 -24
-106 -30 -145 -6 -38 -24 -122 -40 -185 -15 -63 -36 -152 -45 -198 -27 -134
-74 -224 -249 -477 -27 -38 -76 -98 -109 -132 -32 -34 -71 -79 -85 -100 -46
-70 -163 -202 -197 -223 -18 -11 -54 -24 -81 -29 -123 -24 -182 -50 -288 -130
-159 -120 -313 -173 -438 -153 -210 34 -262 46 -348 76 -52 19 -142 51 -200
71 -58 20 -121 49 -140 64 -19 15 -58 44 -85 63 -146 102 -348 337 -457 534
-25 43 -68 115 -96 159 -28 44 -70 130 -92 190 -23 61 -54 143 -71 183 -33 82
-42 109 -94 277 -20 66 -52 165 -70 220 -19 55 -49 154 -66 220 -30 118 -31
121 -26 310 3 104 10 224 16 265 6 41 20 248 31 460 11 212 25 409 30 439 5
30 14 149 20 265 22 447 46 581 120 668 53 62 464 347 545 378 60 24 356 36
482 20z m1910 -4400 c7 -28 36 -92 66 -143 30 -50 64 -112 77 -137 12 -26 60
-81 112 -131 l90 -85 -15 -35 c-18 -44 -84 -103 -267 -239 -80 -60 -165 -131
-187 -157 -29 -34 -64 -60 -124 -90 -46 -22 -131 -65 -189 -93 -132 -66 -216
-126 -355 -255 -213 -199 -434 -420 -459 -462 -32 -53 -53 -55 -136 -13 -32
16 -87 40 -122 54 -190 71 -423 217 -805 503 -85 64 -172 151 -194 196 -40 78
-52 173 -52 410 0 132 -4 227 -9 227 -5 0 -6 10 -3 21 4 12 7 59 7 104 0 101
7 102 75 6 58 -82 200 -234 256 -275 23 -17 71 -54 106 -83 94 -77 254 -155
386 -188 160 -39 409 -47 577 -16 65 12 148 33 185 46 65 25 266 130 415 218
73 42 230 188 265 245 10 16 37 51 60 78 39 46 96 133 182 281 20 35 38 63 41
63 3 0 11 -23 17 -50z"/>
<path d="M5915 6670 c-136 -24 -361 -80 -445 -111 -109 -40 -210 -139 -196
-193 5 -19 15 -26 43 -30 62 -11 300 11 423 39 355 79 400 84 491 56 36 -12
83 -34 104 -51 21 -16 42 -30 48 -30 6 0 8 27 5 70 -8 113 -66 178 -208 231
-63 24 -187 33 -265 19z"/>
<path d="M3687 6496 c-88 -32 -179 -120 -209 -204 -18 -49 -24 -142 -10 -142
5 0 31 16 58 35 121 87 246 92 844 34 138 -13 236 -8 258 15 26 26 20 81 -12
115 -60 63 -177 98 -424 126 -79 9 -169 20 -200 26 -84 13 -261 10 -305 -5z"/>
<path d="M5658 6240 c-110 -13 -189 -45 -254 -102 -34 -30 -89 -106 -82 -113
2 -2 26 17 53 42 76 69 152 114 225 133 83 21 409 22 477 0 42 -13 119 -68
109 -77 -3 -3 -38 12 -78 33 l-73 39 -205 0 -205 0 -70 -39 c-96 -53 -204
-135 -222 -169 -8 -16 -13 -31 -11 -33 2 -2 25 16 52 40 44 41 135 96 182 110
19 6 22 2 27 -39 3 -31 15 -59 34 -83 30 -36 32 -37 109 -40 135 -5 186 35
189 148 1 55 1 55 30 52 17 -2 63 -17 103 -33 88 -35 125 -37 146 -8 34 49
-46 117 -163 139 -61 11 -273 11 -373 0z"/>
<path d="M4067 6124 c-176 -20 -372 -95 -406 -156 -21 -38 -6 -47 27 -16 89
84 357 158 516 143 39 -3 95 -6 125 -7 29 0 65 -5 80 -12 47 -20 82 -49 77
-62 -3 -8 0 -11 10 -7 8 3 14 -1 14 -11 0 -9 5 -16 10 -16 16 0 12 18 -14 58
-32 52 -44 59 -112 76 -87 21 -194 24 -327 10z"/>
<path d="M3997 6059 c-99 -14 -292 -127 -272 -159 13 -21 72 -11 103 18 16 15
54 39 83 54 l54 27 6 -47 c7 -57 22 -88 49 -102 28 -15 130 -24 184 -16 60 9
86 46 86 124 0 28 4 52 9 52 5 0 47 -14 93 -31 56 -20 95 -42 121 -67 27 -26
37 -32 37 -19 0 54 -170 138 -327 162 -107 16 -139 17 -226 4z"/>
<path d="M5285 5091 c-59 -15 -115 -66 -100 -91 4 -6 18 -4 37 6 22 12 53 15
121 13 94 -4 117 2 117 26 0 36 -106 64 -175 46z"/>
<path d="M4714 5029 c-50 -14 -108 -81 -88 -101 6 -6 85 16 115 32 8 4 50 15
92 25 42 9 77 21 77 26 0 26 -128 38 -196 18z"/>
<path d="M5246 4874 c-22 -8 -61 -28 -88 -45 -60 -39 -104 -49 -160 -38 -187
37 -209 34 -319 -37 -92 -60 -167 -96 -293 -143 -167 -61 -244 -122 -324 -255
-29 -47 -33 -63 -33 -121 0 -50 6 -79 23 -113 34 -70 55 -68 137 11 78 75 113
89 191 75 49 -9 58 -16 153 -114 164 -171 258 -205 565 -203 172 1 193 2 186
8 -3 3 21 10 53 17 68 14 193 91 238 148 17 21 45 56 64 79 52 65 103 148 98
161 -3 7 9 18 27 26 47 20 87 50 81 61 -4 5 -37 9 -76 9 -60 0 -81 6 -166 44
-170 76 -210 81 -311 37 -69 -29 -150 -43 -360 -61 -74 -6 -128 -16 -158 -30
-26 -11 -52 -20 -58 -20 -6 0 -44 -20 -85 -45 -71 -43 -114 -57 -216 -70 l-50
-6 27 23 c14 13 46 35 70 50 23 15 54 36 68 47 14 12 54 27 90 34 36 8 99 31
142 51 42 21 96 40 120 43 23 2 84 18 133 35 123 42 236 47 405 20 69 -12 159
-24 200 -27 74 -7 248 -58 321 -96 20 -10 58 -37 84 -59 25 -22 55 -40 66 -40
32 0 25 64 -17 150 -70 147 -108 176 -312 241 -191 61 -241 81 -289 115 -26
19 -61 36 -78 38 -85 13 -113 13 -149 0z"/>
<path d="M5297 3879 c-43 -4 -121 -17 -172 -29 -68 -14 -131 -20 -225 -20 -72
0 -130 -4 -130 -9 0 -16 76 -70 142 -100 80 -37 209 -64 263 -55 61 10 103 35
189 116 59 55 78 79 73 91 -7 19 -17 19 -140 6z"/>
</g>
</svg>
